<svg width="141" height="75" viewBox="0 0 141 75" fill="none" xmlns="http://www.w3.org/2000/svg">
<path d="M37.6005 7.90817C37.6005 6.85287 37.9608 6.04209 38.6815 5.47582C39.4022 4.90956 40.4318 4.62643 41.7702 4.62643V16.5565H54.7427V7.90817C54.7427 6.82713 55.0902 6.01635 55.7852 5.47582C56.5059 4.90956 57.5354 4.62643 58.8739 4.62643V29.0657C58.8739 30.121 58.5135 30.9318 57.7928 31.4981C57.0979 32.0643 56.0812 32.3475 54.7427 32.3475V20.1857H41.7702V29.0657C41.7702 30.121 41.4099 30.9318 40.6892 31.4981C39.9685 32.0643 38.9389 32.3475 37.6005 32.3475V7.90817ZM65.3294 40.0306C64.48 40.0306 63.8108 39.7603 63.3217 39.2198C62.8327 38.6793 62.5753 37.8814 62.5495 36.8261C63.2445 36.9548 63.8365 37.0191 64.3255 37.0191C65.4066 37.0191 66.2688 36.7103 66.9123 36.0925C67.5558 35.4748 68.2379 34.3551 68.9586 32.7336L69.6535 31.112L62.1248 12.657C62.305 12.5798 62.5624 12.5155 62.897 12.464C63.2316 12.3868 63.5276 12.3482 63.785 12.3482C64.4028 12.3739 64.9562 12.5283 65.4452 12.8115C65.96 13.0946 66.3075 13.4807 66.4876 13.9697L71.3137 26.3631L70.7346 28.0233L71.0048 28.1391L76.5645 13.9697C76.7447 13.455 77.0793 13.056 77.5683 12.7729C78.0574 12.4897 78.6108 12.3482 79.2285 12.3482C79.4859 12.3482 79.7819 12.3868 80.1165 12.464C80.4768 12.5155 80.7342 12.5798 80.8887 12.657L72.2403 33.8532C71.3909 35.9381 70.4257 37.4824 69.3447 38.4863C68.2894 39.5158 66.9509 40.0306 65.3294 40.0306ZM90.5731 32.3475C89.003 32.3475 87.5874 32.0386 86.3262 31.4209C85.0649 30.8031 84.074 29.9537 83.3533 28.8727C82.6326 27.7917 82.2723 26.5819 82.2723 25.2435V19.7224C82.2723 18.3325 82.6455 17.0842 83.3919 15.9774C84.1641 14.8449 85.1808 13.9569 86.442 13.3134C87.7032 12.6699 89.0803 12.3482 90.5731 12.3482C92.066 12.3482 93.4302 12.657 94.6656 13.2748C95.9011 13.8925 96.8792 14.7548 97.5999 15.8616C98.3206 16.9426 98.6809 18.1781 98.6809 19.568V21.9617C98.6809 22.3993 98.5008 22.7854 98.1404 23.12C97.8058 23.4289 97.394 23.5833 96.9049 23.5833H86.0173V25.0504C86.0173 26.2859 86.4034 27.2897 87.1756 28.0619C87.9477 28.8083 89.0803 29.1816 90.5731 29.1816C92.066 29.1816 93.1856 28.8598 93.9321 28.2163C94.7043 27.5471 95.0903 26.672 95.0903 25.591C96.0169 25.5137 96.7763 25.6682 97.3683 26.0543C97.9603 26.4146 98.2563 26.968 98.2563 27.7144C98.2563 28.5123 97.8959 29.2717 97.1752 29.9923C96.4803 30.6873 95.5408 31.2536 94.3568 31.6911C93.1985 32.1287 91.9373 32.3475 90.5731 32.3475ZM95.1676 20.6877V19.568C95.1676 18.3583 94.7429 17.3802 93.8935 16.6337C93.0441 15.8616 91.9373 15.4755 90.5731 15.4755C89.2089 15.4755 88.1022 15.8616 87.2528 16.6337C86.4291 17.3802 86.0173 18.3583 86.0173 19.568V20.6877H95.1676ZM109.529 32.3475C107.908 32.3475 106.453 32.0515 105.166 31.4595C103.879 30.8675 102.863 30.0567 102.116 29.0271C101.396 27.9718 101.035 26.8007 101.035 25.5137V19.4522C101.035 18.1395 101.396 16.9426 102.116 15.8616C102.837 14.7805 103.841 13.9311 105.128 13.3134C106.415 12.6699 107.882 12.3482 109.529 12.3482C111.176 12.3482 112.644 12.6699 113.93 13.3134C115.217 13.9311 116.221 14.7805 116.942 15.8616C117.688 16.9426 118.062 18.1395 118.062 19.4522V25.5137C118.062 26.8007 117.688 27.9718 116.942 29.0271C116.221 30.0567 115.205 30.8675 113.892 31.4595C112.605 32.0515 111.151 32.3475 109.529 32.3475ZM109.529 29.0271C110.996 29.0271 112.154 28.6925 113.004 28.0233C113.853 27.3283 114.278 26.4146 114.278 25.2821V19.6066C114.278 18.4226 113.84 17.4703 112.965 16.7496C112.116 16.0289 110.97 15.6685 109.529 15.6685C108.088 15.6685 106.929 16.0289 106.054 16.7496C105.205 17.4703 104.78 18.4226 104.78 19.6066V25.2821C104.78 26.4146 105.205 27.3283 106.054 28.0233C106.904 28.6925 108.062 29.0271 109.529 29.0271ZM122.019 15.4755C122.019 13.3906 123.255 12.3482 125.726 12.3482V14.7805C125.468 15.0379 125.185 15.3983 124.876 15.8616L125.069 16.016C125.842 14.9092 126.833 14.0212 128.042 13.352C129.278 12.6828 130.616 12.3482 132.058 12.3482C134.117 12.3482 135.751 12.9788 136.961 14.24C138.171 15.4755 138.775 17.0713 138.775 19.0275V29.7221C138.775 30.623 138.454 31.2922 137.81 31.7297C137.193 32.1416 136.24 32.3475 134.953 32.3475V19.4908C134.953 18.3583 134.619 17.4445 133.949 16.7496C133.28 16.0546 132.302 15.7071 131.015 15.7071C130.114 15.7071 129.265 15.913 128.467 16.3249C127.669 16.711 127.038 17.2386 126.575 17.9078C126.112 18.577 125.88 19.3106 125.88 20.1085V29.7221C125.88 30.6487 125.558 31.3179 124.915 31.7297C124.297 32.1416 123.332 32.3475 122.019 32.3475V15.4755ZM86.2842 65.3475C84.0707 65.3475 82.1402 65.0515 80.4929 64.4595C78.8714 63.8417 77.6359 63.0181 76.7865 61.9885C75.9371 60.959 75.5124 59.8136 75.5124 58.5523C75.5124 57.6 75.7955 56.8536 76.3618 56.313C76.9281 55.7468 77.8161 55.4637 79.0258 55.4637C79.0515 57.5743 79.7079 59.183 80.9948 60.2897C82.2818 61.3965 84.0835 61.9499 86.4001 61.9499C88.5107 61.9499 90.1322 61.5896 91.2648 60.8689C92.423 60.1482 93.0022 59.1057 93.0022 57.7416C93.0022 56.8922 92.7834 56.1972 92.3458 55.6567C91.934 55.1162 91.2004 54.64 90.1451 54.2282C89.1155 53.7906 87.6484 53.3659 85.7437 52.9541C83.3242 52.4136 81.4067 51.7958 79.991 51.1009C78.5754 50.4059 77.5458 49.5694 76.9023 48.5913C76.2588 47.5875 75.9371 46.352 75.9371 44.8849C75.9371 43.4435 76.3489 42.1823 77.1726 41.1012C78.022 39.9944 79.206 39.145 80.7246 38.553C82.2432 37.9353 84.0063 37.6264 86.014 37.6264C87.9187 37.6264 89.6175 37.8967 91.1103 38.4372C92.6289 38.952 93.8129 39.6856 94.6623 40.6379C95.5375 41.5903 95.975 42.6842 95.975 43.9197C95.975 44.6918 95.7048 45.3096 95.1642 45.7729C94.6237 46.2362 93.7743 46.4807 92.6161 46.5064C92.3844 44.6017 91.7409 43.2118 90.6856 42.3367C89.6303 41.4616 88.0731 41.024 86.014 41.024C84.1093 41.024 82.6422 41.3586 81.6126 42.0278C80.583 42.6713 80.0682 43.5979 80.0682 44.8077C80.0682 45.657 80.2613 46.352 80.6474 46.8925C81.0335 47.433 81.6769 47.9092 82.5778 48.321C83.5044 48.7071 84.8171 49.0803 86.5159 49.4407C89.1413 50.007 91.2133 50.6504 92.7319 51.3711C94.2505 52.0918 95.3444 52.9541 96.0136 53.9579C96.7086 54.9617 97.0561 56.2101 97.0561 57.703C97.0561 60.071 96.078 61.937 94.1218 63.3012C92.1914 64.6654 89.5788 65.3475 86.2842 65.3475ZM117.652 62.1816C117.652 64.2922 116.417 65.3475 113.946 65.3475V62.9151C114.203 62.6835 114.486 62.3103 114.795 61.7955L114.641 61.641C113.843 62.7736 112.878 63.6744 111.745 64.3437C110.613 65.0129 109.339 65.3475 107.923 65.3475C106.559 65.3475 105.349 65.0515 104.294 64.4595C103.238 63.8675 102.415 63.0438 101.823 61.9885C101.231 60.9075 100.935 59.6977 100.935 58.3593V47.9736C100.935 47.047 101.244 46.3777 101.861 45.9659C102.505 45.5541 103.483 45.3482 104.796 45.3482V58.1663C104.796 59.3245 105.143 60.2511 105.838 60.9461C106.533 61.641 107.55 61.9885 108.888 61.9885C110.278 61.9885 111.449 61.5638 112.402 60.7144C113.354 59.865 113.83 58.8226 113.83 57.5871V47.9736C113.83 47.047 114.139 46.3777 114.757 45.9659C115.374 45.5541 116.34 45.3482 117.652 45.3482V62.1816ZM139.26 64.305C138.771 65 138.089 65.3475 137.214 65.3475C136.776 65.3475 136.39 65.2574 136.056 65.0772C135.721 64.897 135.412 64.5882 135.129 64.1506L129.338 55.232L126.558 57.7416V62.7607C126.558 64.4852 125.284 65.3475 122.736 65.3475V40.7151C122.736 38.656 124.023 37.6264 126.597 37.6264L126.558 53.6877L135.747 45.3868C136.673 46.1847 137.137 46.8539 137.137 47.3944C137.137 47.7548 137.047 48.0637 136.866 48.321C136.686 48.5527 136.365 48.8873 135.901 49.3249L131.693 53.1471L139.26 64.305Z" fill="black"/>
<path d="M38 74.88C27.8531 74.88 18.175 71.0612 11 63.8978C3.82504 56.7345 0 47.072 0 36.9416C0 21.4652 9.2119 6.99121 23 0.999865C23.4859 0.788423 23.4792 0.901373 24 0.999865C24.5208 1.09836 25.6252 1.62402 26 1.99825C26.3748 2.37247 25.9013 2.47664 26 2.99663C26.0987 3.51661 26.2118 4.50823 26 4.99339C24.4169 8.62211 24 12.8124 24 17.9723C24 36.1291 38.8138 50.9189 57 50.9189C62.1683 50.9189 66.3654 50.5027 70 48.9221C70.4859 48.7107 71.4792 48.8236 72 48.9221C72.5208 49.0206 72.6252 48.5479 73 48.9221C73.3748 49.2963 73.9013 50.3989 74 50.9189C74.0987 51.4389 74.2118 51.4321 74 51.9173C67.9989 65.683 53.5015 74.88 38 74.88Z" fill="#E7BE1A"/>
<path d="M23.2731 1.62829L23.2734 1.62815C23.3562 1.59212 23.4041 1.57555 23.4281 1.56833C23.4286 1.56843 23.429 1.56853 23.4295 1.56863C23.4502 1.57339 23.4746 1.57976 23.5177 1.59114C23.6007 1.613 23.7174 1.64375 23.8727 1.67312C24.042 1.70513 24.3826 1.829 24.7528 2.01072C25.0238 2.14379 25.2457 2.27621 25.3874 2.37825C25.3741 2.41455 25.3614 2.45279 25.3509 2.49043C25.3007 2.67113 25.2808 2.88184 25.3268 3.12434C25.3713 3.35896 25.4192 3.70206 25.4317 4.03399C25.4454 4.39639 25.4112 4.62948 25.372 4.71926L25.372 4.7194C23.7305 8.48194 23.3148 12.7892 23.3148 17.9723C23.3148 36.5086 38.4364 51.6041 57 51.6041C62.1913 51.6041 66.5051 51.1891 70.2732 49.5505L70.2734 49.5504C70.3639 49.511 70.598 49.4769 70.9611 49.4906C71.2937 49.5031 71.6376 49.5509 71.8727 49.5954C72.115 49.6412 72.3256 49.6214 72.5062 49.5714C72.5445 49.5608 72.5834 49.5478 72.6202 49.5343C72.7225 49.6757 72.8554 49.8975 72.9889 50.1686C73.1709 50.5381 73.2948 50.878 73.3268 51.0466C73.3563 51.2017 73.3871 51.3184 73.409 51.4012C73.4204 51.4443 73.4268 51.4686 73.4315 51.4892C73.4315 51.4894 73.4316 51.4895 73.4316 51.4897C73.4243 51.5138 73.4077 51.5614 73.372 51.6431L73.3719 51.6434C67.4853 65.1467 53.243 74.1948 38 74.1948C28.0259 74.1948 18.5246 70.442 11.4841 63.4129C4.44372 56.3839 0.685185 46.8986 0.685185 36.9416C0.685185 21.7249 9.74701 7.50576 23.2731 1.62829ZM23.4482 1.56324C23.4481 1.56335 23.4462 1.56379 23.443 1.56425C23.4467 1.56336 23.4483 1.56313 23.4482 1.56324ZM25.5266 2.49449C25.5266 2.49449 25.5262 2.49415 25.5257 2.49344L25.5266 2.49449ZM25.4771 2.16501C25.4784 2.16094 25.4792 2.15876 25.4793 2.15869C25.4794 2.15862 25.4788 2.16065 25.4771 2.16501ZM72.8382 49.4433C72.838 49.4434 72.8359 49.4442 72.8321 49.4454C72.8364 49.4437 72.8384 49.4431 72.8382 49.4433ZM73.4369 51.4693C73.437 51.4694 73.4367 51.471 73.4358 51.4746C73.4363 51.4711 73.4368 51.4692 73.4369 51.4693Z" stroke="black" stroke-width="1.37037"/>
</svg>
